#!OML:ASF X:\für Bonn\!DataBase\2005_08_10_Bjorn_Final\c3d\bjorn.ASF
:FULLY-SPECIFIED
:DEGREES
196
root -1.1572 17.4307 7.85252 -184.852 4.91254 175.129
lowerback 3.57323 -2.90253 -0.308061
upperback 15.2388 -1.25021 -1.37261
thorax 14.6833 0.50906 -1.1949
lowerneck -9.16415 2.82958 -3.68692
upperneck 6.84629 4.91144 -5.15944
head 3.93572 2.15748 -0.756329
rclavicle -2.98177e-015 -5.1684e-015
rhumerus -24.9528 -19.3081 -89.4368
rradius 24.6114
rwrist 3.45126
rhand -14.8176 20.6874
rfingers 7.12502
rthumb 11.3406 -8.986
lclavicle -2.98177e-015 -5.1684e-015
lhumerus -388.032 -25.076 -270.552
lradius 41.6829
lwrist -8.78977
lhand -48.3152 -22.7481
lfingers 7.12502
lthumb -20.9712 6.13815
rfemur -44.1473 1.63608 8.80415
rtibia 53.1102
rfoot -8.71047 12.5143
rtoes -21.6552
lfemur 5.67894 4.43912 -25.9502
ltibia 40.4509
lfoot -35.7746 5.72967
ltoes -20.0186
197
root -1.15038 17.4895 7.84376 -184.445 4.77976 175.341
lowerback 3.07418 -2.78491 -0.0490073
upperback 14.8573 -1.2717 -1.23838
thorax 14.5066 0.456237 -1.21211
lowerneck -9.01271 2.67781 -3.47743
upperneck 7.44376 4.71184 -5.10882
head 4.12208 2.05127 -0.789675
rclavicle -1.31198e-014 9.93923e-015
rhumerus -25.3461 -19.5671 -89.068
rradius 24.3629
rwrist 3.27297
rhand -14.4839 20.1546
rfingers 7.12502
rthumb 11.6625 -9.5008
lclavicle -1.31198e-014 9.93923e-015
lhumerus -388.655 -26.4845 -269.963
lradius 41.8755
lwrist -8.52144
lhand -48.3494 -22.458
lfingers 7.12502
lthumb -21.0041 6.42457
rfemur -44.2632 1.64386 8.86039
rtibia 52.8187
rfoot -8.45875 12.8725
rtoes -22.0854
lfemur 5.68947 4.51477 -25.5943
ltibia 39.6065
lfoot -35.3619 5.4927
ltoes -20.4534
198
root -1.13969 17.5315 7.83375 -183.871 4.6156 175.552
lowerback 2.41247 -2.66302 0.207414
upperback 14.4136 -1.31235 -1.09779
thorax 14.3588 0.383683 -1.22787
lowerneck -8.74911 2.5381 -3.29335
upperneck 7.99621 4.52642 -5.05715
head 4.26982 1.95772 -0.819539
rclavicle 1.98785e-015 6.75868e-015
rhumerus -25.7402 -19.9421 -88.6246
rradius 24.027
rwrist 3.39652
rhand -14.2047 19.6767
rfingers 7.12502
rthumb 11.9317 -9.96331
lclavicle 1.98785e-015 6.75868e-015
lhumerus -389.32 -27.8586 -269.348
lradius 42.1701
lwrist -8.16986
lhand -48.1208 -22.3166
lfingers 7.12502
lthumb -20.7844 6.59018
rfemur -44.6635 1.6304 8.90348
rtibia 52.6322
rfoot -8.21914 13.1015
rtoes -22.3452
lfemur 5.4917 4.53911 -25.2458
ltibia 38.8184
lfoot -34.9486 5.19133
ltoes -20.6572
199
root -1.12859 17.5952 7.82039 -183.198 4.43881 175.763
lowerback 1.66901 -2.52547 0.471279
upperback 13.9183 -1.34534 -0.968384
thorax 14.2032 0.311027 -1.2625
lowerneck -8.41307 2.41541 -3.0506
upperneck 8.54438 4.35822 -5.02272
head 4.40401 1.87764 -0.865771
rclavicle 1.45113e-014 -1.98785e-014
rhumerus -26.1651 -20.4782 -88.1404
rradius 23.6061
rwrist 3.81681
rhand -14.0057 19.2944
rfingers 7.12502
rthumb 12.1236 -10.3344
lclavicle 1.45113e-014 -1.98785e-014
lhumerus -390.083 -29.2537 -268.718
lradius 42.5923
lwrist -7.73561
lhand -47.7502 -21.9671
lfingers 7.12502
lthumb -20.4284 6.97831
rfemur -45.0853 1.60412 8.93954
rtibia 52.4179
rfoot -8.03511 13.2883
rtoes -22.5014
lfemur 5.20462 4.63496 -24.869
ltibia 37.9861
lfoot -34.5105 4.8346
ltoes -21.072
200
root -1.11535 17.6597 7.80479 -182.478 4.23635 176.031
lowerback 0.913901 -2.38867 0.779446
upperback 13.3678 -1.39359 -0.832683
thorax 13.9906 0.231093 -1.3179
lowerneck -7.87414 2.30726 -2.77884
upperneck 9.03265 4.19981 -4.99679
head 4.47629 1.81151 -0.921896
rclavicle 8.15017e-015 1.59028e-015
rhumerus -26.7002 -21.0413 -87.6207
rradius 23.2242
rwrist 4.33152
rhand -13.7986 18.8936
rfingers 7.12502
rthumb 12.3233 -10.7232
lclavicle 8.15017e-015 1.59028e-015
lhumerus -390.981 -30.5737 -268.062
lradius 43.1267
lwrist -7.33338
lhand -47.3902 -21.635
lfingers 7.12502
lthumb -20.0823 7.34707
rfemur -45.5562 1.55976 9.04338
rtibia 52.2344
rfoot -7.91074 13.4129
rtoes -22.63
lfemur 4.86962 4.81091 -24.3757
ltibia 37.1621
lfoot -34.0887 4.28402
ltoes -21.1763
201
root -1.1005 17.723 7.78728 -181.786 4.02408 176.313
lowerback 0.177091 -2.26942 1.06679
upperback 12.8329 -1.45369 -0.682123
thorax 13.7925 0.147056 -1.34608
lowerneck -7.27018 2.21372 -2.58011
upperneck 9.43659 4.06319 -4.93675
head 4.50176 1.76103 -0.952317
rclavicle 3.77691e-015 1.19271e-015
rhumerus -27.224 -21.6037 -87.0445
rradius 22.8704
rwrist 4.797
rhand -13.4307 18.5674
rfingers 7.12502
rthumb 12.678 -11.0278
lclavicle 3.77691e-015 1.19271e-015
lhumerus -391.843 -31.7721 -267.405
lradius 43.6852
lwrist -6.92395
lhand -47.0793 -21.4521
lfingers 7.12502
lthumb -19.7835 7.56106
rfemur -45.9851 1.55639 9.15543
rtibia 52.0413
rfoot -7.76721 13.4752
rtoes -22.594
lfemur 4.60722 4.99011 -23.8575
ltibia 36.2534
lfoot -33.631 3.58708
ltoes -21.0625
